<svg width="52" height="48" viewBox="0 0 52 48" fill="none" xmlns="http://www.w3.org/2000/svg">
<rect width="50.1806" height="48" transform="translate(0.974609)" fill="black"/>
<path d="M43.1552 11.0205C41.8741 11.7162 40.5173 12.1724 39.1287 12.3742C40.5862 11.31 41.6821 9.62253 42.2118 7.62693C40.8309 8.62638 39.3248 9.33033 37.7564 9.70943C37.0959 8.84924 36.3015 8.16538 35.4214 7.69956C34.5414 7.23374 33.5943 6.99573 32.6378 7.00006C28.7652 7.00006 25.6257 10.8463 25.6257 15.585C25.6257 16.2565 25.6872 16.9132 25.8069 17.54C23.029 17.3758 20.3091 16.4933 17.8208 14.9489C15.3326 13.4045 13.1306 11.2322 11.3553 8.57043C10.7329 9.87603 10.4058 11.3665 10.4085 12.8842C10.4097 14.3036 10.6953 15.7003 11.2396 16.948C11.7838 18.1957 12.5696 19.2551 13.5258 20.0305C12.414 19.9859 11.3263 19.6168 10.3504 18.9532V19.0594C10.3504 23.2201 12.7687 26.6903 15.9731 27.4808C15.3708 27.6794 14.7504 27.7802 14.1273 27.7804C13.6744 27.7804 13.2352 27.7273 12.8063 27.621C13.2644 29.3378 14.1412 30.8347 15.3148 31.9036C16.4884 32.9725 17.9006 33.5605 19.3553 33.5859C16.8602 35.9755 13.7972 37.2665 10.6478 37.2557C10.0804 37.2557 9.52321 37.2132 8.97461 37.1367C12.1897 39.667 15.9177 41.0069 19.7227 41C32.6208 41 39.6722 27.9164 39.6722 16.571L39.6483 15.4597C41.0238 14.2562 42.2121 12.7521 43.1552 11.0205Z" fill="white"/>
</svg>
