<svg width="51" height="49" viewBox="0 0 51 49" fill="none" xmlns="http://www.w3.org/2000/svg">
<rect width="50.1315" height="49" transform="translate(0.84375)" fill="#4B5CF5"/>
<path d="M20.0194 40.2971V27.568H13.1822C12.8272 27.568 12.4868 27.4675 12.2358 27.2886C11.9848 27.1098 11.8438 26.8672 11.8438 26.6142V21.5796C11.8438 21.3267 11.9848 21.0841 12.2358 20.9052C12.4868 20.7264 12.8272 20.6259 13.1822 20.6259H19.9924V15.7523C19.8295 14.5965 20.0237 13.4293 20.5613 12.3328C21.099 11.2362 21.967 10.2368 23.1045 9.40474C24.242 8.5727 25.6214 7.9282 27.1457 7.51652C28.67 7.10484 30.3024 6.93595 31.9281 7.02172H37.6258C37.9841 7.02122 38.3284 7.12112 38.5843 7.29987C38.8402 7.47862 38.9872 7.72189 38.9937 7.9772V12.2401C38.986 12.4949 38.8385 12.7375 38.5828 12.9158C38.3271 13.0941 37.9835 13.1939 37.6258 13.1938H34.0647C30.2188 13.1938 29.4795 14.4923 29.4795 16.4015V20.6241H38.6229C38.8129 20.6196 39.002 20.6447 39.1771 20.6976C39.3521 20.7505 39.5089 20.8299 39.6365 20.9303C39.7642 21.0307 39.8595 21.1498 39.916 21.2791C39.9726 21.4085 39.9888 21.5451 39.9638 21.6794L39.1361 26.7332C39.0947 26.9647 38.9356 27.1773 38.6889 27.3308C38.4422 27.4843 38.1252 27.5681 37.7977 27.5662H29.536V40.2954C29.54 40.5201 29.4807 40.7432 29.3618 40.9514C29.2428 41.1596 29.0666 41.3487 28.8434 41.5075C28.6202 41.6664 28.3546 41.7918 28.0623 41.8764C27.7701 41.9609 27.457 42.0029 27.1415 41.9998H22.3845C22.0714 42.0003 21.7613 41.9564 21.4723 41.8707C21.1833 41.785 20.9211 41.6591 20.701 41.5005C20.4809 41.3419 20.3073 41.1536 20.1903 40.9468C20.0733 40.7399 20.0152 40.5202 20.0194 40.2971Z" fill="white"/>
</svg>
