<svg width="29" height="35" viewBox="0 0 29 35" fill="none" xmlns="http://www.w3.org/2000/svg">
<path d="M8.22646 33.2971V20.568H1.38925C1.03426 20.568 0.693819 20.4675 0.442809 20.2886C0.191798 20.1098 0.0507812 19.8672 0.0507812 19.6142V14.5796C0.0507812 14.3267 0.191798 14.0841 0.442809 13.9052C0.693819 13.7264 1.03426 13.6259 1.38925 13.6259H8.19945V8.75225C8.03653 7.5965 8.23072 6.42934 8.76835 5.33276C9.30599 4.23619 10.174 3.23678 11.3115 2.40474C12.449 1.5727 13.8284 0.928201 15.3527 0.516519C16.8771 0.104837 18.5094 -0.0640491 20.1351 0.0217245H25.8328C26.1911 0.021224 26.5354 0.121125 26.7913 0.299874C27.0472 0.478623 27.1943 0.721893 27.2007 0.9772V5.24009C27.193 5.49495 27.0455 5.73751 26.7898 5.91579C26.5341 6.09407 26.1905 6.19388 25.8328 6.19382H22.2717C18.4258 6.19382 17.6866 7.49229 17.6866 9.40149V13.6241H26.8299C27.0199 13.6196 27.209 13.6447 27.3841 13.6976C27.5592 13.7505 27.7159 13.8299 27.8436 13.9303C27.9712 14.0307 28.0666 14.1498 28.1231 14.2791C28.1796 14.4085 28.1959 14.5451 28.1708 14.6794L27.3432 19.7332C27.3017 19.9647 27.1426 20.1773 26.8959 20.3308C26.6493 20.4843 26.3322 20.5681 26.0047 20.5662H17.7431V33.2954C17.747 33.5201 17.6878 33.7432 17.5688 33.9514C17.4499 34.1596 17.2736 34.3487 17.0504 34.5075C16.8272 34.6664 16.5617 34.7918 16.2694 34.8764C15.9771 34.9609 15.664 35.0029 15.3486 34.9998H10.5915C10.2784 35.0003 9.96838 34.9564 9.67937 34.8707C9.39035 34.785 9.12816 34.6591 8.90806 34.5005C8.68796 34.3419 8.51434 34.1536 8.39733 33.9468C8.28031 33.7399 8.22223 33.5202 8.22646 33.2971Z" fill="white"/>
</svg>
