<svg width="43" height="42" viewBox="0 0 43 42" fill="none" xmlns="http://www.w3.org/2000/svg">
<path d="M33.8333 33.3333C31.5208 33.3333 29.6667 35.1875 29.6667 37.5C29.6667 38.6051 30.1057 39.6649 30.8871 40.4463C31.6685 41.2277 32.7283 41.6667 33.8333 41.6667C34.9384 41.6667 35.9982 41.2277 36.7796 40.4463C37.561 39.6649 38 38.6051 38 37.5C38 36.3949 37.561 35.3351 36.7796 34.5537C35.9982 33.7723 34.9384 33.3333 33.8333 33.3333ZM0.5 0V4.16667H4.66667L12.1667 19.9792L9.33333 25.0833C9.02083 25.6667 8.83333 26.3542 8.83333 27.0833C8.83333 28.1884 9.27232 29.2482 10.0537 30.0296C10.8351 30.811 11.8949 31.25 13 31.25H38V27.0833H13.875C13.7369 27.0833 13.6044 27.0285 13.5067 26.9308C13.409 26.8331 13.3542 26.7006 13.3542 26.5625C13.3542 26.4583 13.375 26.375 13.4167 26.3125L15.2917 22.9167H30.8125C32.375 22.9167 33.75 22.0417 34.4583 20.7708L41.9167 7.29167C42.0625 6.95833 42.1667 6.60417 42.1667 6.25C42.1667 5.69747 41.9472 5.16756 41.5565 4.77686C41.1658 4.38616 40.6359 4.16667 40.0833 4.16667H9.27083L7.3125 0M13 33.3333C10.6875 33.3333 8.83333 35.1875 8.83333 37.5C8.83333 38.6051 9.27232 39.6649 10.0537 40.4463C10.8351 41.2277 11.8949 41.6667 13 41.6667C14.1051 41.6667 15.1649 41.2277 15.9463 40.4463C16.7277 39.6649 17.1667 38.6051 17.1667 37.5C17.1667 36.3949 16.7277 35.3351 15.9463 34.5537C15.1649 33.7723 14.1051 33.3333 13 33.3333Z" fill="black"/>
</svg>
